<?xml version="1.0" encoding="UTF-8" standalone="no"?>
<!-- Created with Inkscape (http://www.inkscape.org/) -->

<svg
   xmlns:dc="http://purl.org/dc/elements/1.1/"
   xmlns:cc="http://creativecommons.org/ns#"
   xmlns:rdf="http://www.w3.org/1999/02/22-rdf-syntax-ns#"
   xmlns:svg="http://www.w3.org/2000/svg"
   xmlns="http://www.w3.org/2000/svg"
   xmlns:sodipodi="http://sodipodi.sourceforge.net/DTD/sodipodi-0.dtd"
   xmlns:inkscape="http://www.inkscape.org/namespaces/inkscape"
   width="10"
   height="10"
   viewBox="0 0 10 10"
   id="svg2"
   version="1.1"
   inkscape:version="0.91 r13725"
   sodipodi:docname="23.svg">
  <defs
     id="defs4">
    <inkscape:path-effect
       effect="skeletal"
       id="path-effect4191"
       is_visible="true"
       pattern="m 0,1042.3622 1,0"
       copytype="single_stretched"
       prop_scale="1"
       scale_y_rel="false"
       spacing="0"
       normal_offset="0"
       tang_offset="0"
       prop_units="false"
       vertical_pattern="false"
       fuse_tolerance="0" />
    <inkscape:path-effect
       effect="powerstroke"
       id="path-effect4187"
       is_visible="true"
       offset_points="0,0.5"
       sort_points="true"
       interpolator_type="CubicBezierJohan"
       interpolator_beta="0.2"
       start_linecap_type="zerowidth"
       linejoin_type="round"
       miter_limit="4"
       end_linecap_type="zerowidth"
       cusp_linecap_type="round" />
    <inkscape:path-effect
       effect="skeletal"
       id="path-effect4183"
       is_visible="true"
       pattern="m 0,1047.3622 c 0,-2.76 2.24,-5 5,-5 2.76,0 5,2.24 5,5 0,2.76 -2.24,5 -5,5 -2.76,0 -5,-2.24 -5,-5 z"
       copytype="single_stretched"
       prop_scale="1"
       scale_y_rel="false"
       spacing="0"
       normal_offset="0"
       tang_offset="0"
       prop_units="false"
       vertical_pattern="false"
       fuse_tolerance="0" />
  </defs>
  <sodipodi:namedview
     id="base"
     pagecolor="#ffffff"
     bordercolor="#666666"
     borderopacity="1.0"
     inkscape:pageopacity="0.0"
     inkscape:pageshadow="2"
     inkscape:zoom="64"
     inkscape:cx="1.0675149"
     inkscape:cy="8.1344226"
     inkscape:document-units="px"
     inkscape:current-layer="layer1"
     showgrid="true"
     units="px"
     showguides="false"
     inkscape:window-width="1920"
     inkscape:window-height="1137"
     inkscape:window-x="1192"
     inkscape:window-y="486"
     inkscape:window-maximized="1">
    <inkscape:grid
       type="xygrid"
       id="grid3336" />
  </sodipodi:namedview>
  <metadata
     id="metadata7">
    <rdf:RDF>
      <cc:Work
         rdf:about="">
        <dc:format>image/svg+xml</dc:format>
        <dc:type
           rdf:resource="http://purl.org/dc/dcmitype/StillImage" />
        <dc:title />
      </cc:Work>
    </rdf:RDF>
  </metadata>
  <g
     inkscape:label="Layer 1"
     inkscape:groupmode="layer"
     id="layer1"
     transform="translate(0,-1042.3622)">
    <path
       style="fill:none;stroke:#000000;stroke-width:0;stroke-miterlimit:4;stroke-dasharray:none"
       id="path4347"
       d="m -14.131611,1047.3312 c 0.02925,-0.1911 0.06385,-0.3812 0.10086,-0.571 0.08277,-0.3944 0.166392,-0.7902 0.28642,-1.1754 0.02668,-0.086 0.05762,-0.1698 0.08643,-0.2547 0.13575,-0.3513 0.310799,-0.6902 0.558784,-0.9764 0.160093,-0.1847 0.212573,-0.2142 0.400452,-0.3675 0.293379,-0.1826 0.377877,-0.245 0.752939,-0.4085 0.09783,-0.043 0.201913,-0.07 0.305007,-0.097 0.196813,-0.053 0.471912,-0.1026 0.674143,-0.1248 0.117171,-0.013 0.235168,-0.016 0.352752,-0.025 0.485346,-0 0.9767171,0.051 1.4328019,0.2265 0.3054425,0.1175 0.3719137,0.1775 0.6488219,0.3504 0.096083,0.079 0.1970099,0.153 0.2882479,0.2378 0.2516979,0.2338 0.4695337,0.5143 0.6372764,0.814 0.1343029,0.24 0.145519,0.3045 0.2371532,0.5605 0.1601718,0.473 0.2167701,0.9689 0.2639138,1.4632 0.015663,0.2311 0.045424,0.4632 0.023028,0.695 -0.015076,0.156 -0.030355,0.1884 -0.070599,0.3397 -0.08903,0.2607 -0.2338178,0.4793 -0.4600443,0.6417 -0.1747345,0.1254 -0.5814712,0.3142 -0.7125424,0.3801 -0.240536,0.072 -0.3518568,0.1128 -0.600774,0.1593 -0.3637379,0.068 -0.7617944,0.094 -1.1309304,0.079 -0.143558,-0.01 -0.286329,-0.024 -0.429494,-0.036 -0.367228,-0.084 -0.482759,-0.082 -0.812891,-0.2763 -0.278096,-0.1641 -0.499694,-0.3811 -0.718763,-0.6149 -0.112849,-0.1205 -0.220826,-0.2456 -0.323886,-0.3746 -0.09702,-0.1213 -0.18392,-0.2505 -0.27588,-0.3757 -0.281205,-0.4431 -0.152583,-0.2276 -0.388802,-0.645 0,0 0.231853,-0.133 0.231853,-0.133 l 0,0 c 0.219777,0.4243 0.09858,0.2057 0.367234,0.6537 0.09003,0.1255 0.174157,0.2556 0.270091,0.3767 0.281617,0.3556 0.650817,0.7456 1.047134,0.9742 0.3317,0.1913 0.440024,0.1865 0.807835,0.2692 0.143365,0.011 0.2863719,0.029 0.4300941,0.033 0.1401617,0 0.2805564,-6e-4 0.4206017,-0.01 0.4517104,-0.023 0.8994236,-0.1012 1.3255765,-0.2547 0.045235,0.098 0.012318,0.049 0.2245041,-0.098 0.2244048,-0.1556 0.3704619,-0.3666 0.4592121,-0.622 0.041226,-0.1484 0.056712,-0.1802 0.072917,-0.3336 0.024426,-0.2312 -0.00675,-0.4632 -0.015941,-0.6942 -0.00983,-0.1341 -0.020613,-0.2954 -0.034927,-0.4281 -0.037932,-0.3515 -0.1054393,-0.6991 -0.2094411,-1.0373 -0.089822,-0.2564 -0.099333,-0.3162 -0.230542,-0.5575 -0.1629077,-0.2997 -0.3745518,-0.5791 -0.6247616,-0.8114 -0.090471,-0.084 -0.1910393,-0.1565 -0.2865589,-0.2347 -0.2784071,-0.1714 -0.3401611,-0.2278 -0.6465528,-0.3439 -0.4553658,-0.1726 -0.9444341,-0.2264 -1.4282901,-0.2175 -0.11765,0.01 -0.235731,0.014 -0.35295,0.027 -0.213719,0.025 -0.467639,0.073 -0.674889,0.1309 -0.103535,0.029 -0.202033,0.075 -0.306078,0.1019 -0.01283,0 -0.02593,-0.018 -0.03788,-0.012 -0.08407,0.04 -0.159461,0.097 -0.239191,0.1451 -0.18827,0.1499 -0.243674,0.1808 -0.404639,0.3624 -0.249793,0.2818 -0.426039,0.6173 -0.560524,0.9668 -0.02861,0.084 -0.0595,0.1678 -0.08582,0.2528 -0.02563,0.083 -0.04707,0.1668 -0.06997,0.2504 -0.08254,0.3013 -0.150846,0.6066 -0.201981,0.9148 -0.03012,0.1852 -0.05908,0.3708 -0.07694,0.5575 0,0 -0.293596,0.145 -0.293596,0.145 z"
       inkscape:connector-curvature="0" />
    <path
       style="fill:none;stroke:#000000;stroke-width:0;stroke-miterlimit:4;stroke-dasharray:none"
       id="path4349"
       d="m -12.111795,1047.2283 c 0.2273,-0.067 0.445899,-0.1537 0.648413,-0.2794 0.07351,-0.046 0.136477,-0.1064 0.204222,-0.1602 0.609396,-0.484 0.34756,-0.2651 0.942833,-0.8018 0.3962282,-0.3714 0.7517405,-0.7815 1.1050383,-1.1927 0,0 0.2249498,-0.095 0.2249498,-0.095 l 0,0 c -0.3659461,0.4133 -0.7325651,0.8268 -1.1333331,1.2073 -0.155403,0.1419 -0.307113,0.2879 -0.466209,0.4257 -0.147387,0.1275 -0.294816,0.2559 -0.452895,0.37 -0.308784,0.2228 -0.624603,0.4262 -0.96851,0.5876 -0.06998,0.033 -0.26358,0.1027 -0.357725,0.1372 0,0 0.253216,-0.1987 0.253216,-0.1987 z"
       inkscape:connector-curvature="0" />
    <path
       style="fill:none;stroke:#000000;stroke-width:0;stroke-miterlimit:4;stroke-dasharray:none"
       id="path4351"
       d="m -21.695629,1048.5326 c 0.475089,0.7713 1.203758,1.3356 1.886702,1.9121 0.662654,0.5428 1.34375,1.0656 2.069651,1.5216 0.251096,0.1577 0.42915,0.2558 0.680477,0.3986 0.744156,0.4316 1.459747,0.91 2.180862,1.3785 1.114719,0.7191 2.215852,1.4621 3.376209,2.1073 0.249997,0.139 0.505772,0.2673 0.758658,0.401 0,0 -0.421138,0.275 -0.421138,0.275 l 0,0 c -0.246506,-0.1385 -0.495091,-0.2734 -0.739518,-0.4155 -1.152996,-0.6704 -2.26503,-1.4085 -3.41542,-2.0834 -0.03468,-0.021 -1.013838,-0.6035 -1.128414,-0.6705 -0.37364,-0.2184 -0.753739,-0.4265 -1.11394,-0.6672 -0.939791,-0.597 -1.840921,-1.2511 -2.696222,-1.9647 -0.493014,-0.4049 -1.003491,-0.799 -1.459698,-1.2464 -0.195595,-0.1918 -0.368199,-0.4047 -0.540911,-0.6167 0,0 0.562702,-0.3297 0.562702,-0.3297 z"
       inkscape:connector-curvature="0" />
    <path
       style="fill:none;stroke:#000000;stroke-width:0;stroke-miterlimit:4;stroke-dasharray:none"
       id="path4353"
       d="m -9.3211043,1057.4813 c -0.078898,-0.023 -0.1597707,-0.04 -0.2366955,-0.069 -0.3247986,-0.1224 -0.8240442,-0.3643 -1.1048612,-0.5027 -0.293383,-0.1446 -0.58411,-0.2945 -0.875577,-0.443 -2.238994,-1.1402 0.240196,0.1143 -1.946094,-0.99 0,0 0.386432,-0.2538 0.386432,-0.2538 l 0,0 c 0.808494,0.4155 1.127781,0.5876 1.957725,0.981 0.301943,0.1432 0.605094,0.284 0.911593,0.4171 0.327321,0.1421 0.8102933,0.3395 1.1765522,0.4416 0.085291,0.024 0.1740901,0.032 0.2611352,0.049 0,0 -0.5302097,0.3704 -0.5302097,0.3704 z"
       inkscape:connector-curvature="0" />
    <path
       style="fill:none;stroke:#000000;stroke-width:0;stroke-miterlimit:4;stroke-dasharray:none"
       id="path4355"
       d="m -22.66413,1051.3361 c 0.730687,-0.7419 1.563352,-1.373 2.39683,-1.9932 0.503546,-0.338 0.609208,-0.4267 1.12598,-0.7085 0.489647,-0.2671 0.903647,-0.5232 1.42507,-0.6765 0.369294,-0.1085 0.43446,-0.089 0.809209,-0.1051 0.139669,0.024 0.282519,0.033 0.419006,0.071 0.726141,0.202 1.370743,0.7098 1.831657,1.2943 0.145468,0.1845 0.262327,0.3898 0.393491,0.5847 0.119503,0.221 0.248379,0.4373 0.358509,0.6631 0.221554,0.4544 0.482941,1.1224 0.65837,1.5879 0.223196,0.5923 0.437425,1.2038 0.629449,1.8069 0.09335,0.2932 0.178136,0.5891 0.267204,0.8836 0.215602,0.6867 0.307966,1.0435 0.593499,1.7044 0.345587,0.7999 0.79702,1.5622 1.328761,2.2526 0.166436,0.2161 0.352992,0.4159 0.5294875,0.6239 0.6808841,0.7379 1.4830357,1.3033 2.4000063,1.7094 0.4987461,0.2208 0.7177032,0.2739 1.2265958,0.4324 0,0 -0.4530668,0.3081 -0.4530668,0.3081 l 0,0 c -0.4871642,-0.163 -0.7368611,-0.2334 -1.2147587,-0.4502 -0.9176659,-0.4161 -1.7213068,-0.9853 -2.3952491,-1.7375 -0.174808,-0.2107 -0.358948,-0.4139 -0.524423,-0.632 -0.313774,-0.4136 -0.702599,-1.0129 -0.947588,-1.4695 -0.425523,-0.793 -0.72757,-1.6431 -0.973098,-2.5067 -0.08696,-0.295 -0.168536,-0.5918 -0.260867,-0.8852 -0.281002,-0.893 -0.60809,-1.7723 -0.980452,-2.6313 -0.107385,-0.2477 -0.215089,-0.4956 -0.336567,-0.7367 -0.11225,-0.2228 -0.24271,-0.436 -0.364065,-0.654 -0.132635,-0.1907 -0.25136,-0.3919 -0.397904,-0.5722 -0.467728,-0.5754 -1.117416,-1.061 -1.846381,-1.2403 -0.136166,-0.034 -0.277747,-0.039 -0.416621,-0.058 -0.365415,0.021 -0.428027,0 -0.786958,0.1104 -0.147627,0.044 -0.285185,0.1185 -0.433696,0.1592 -0.01415,0 -0.01718,-0.038 -0.03037,-0.032 -0.395764,0.193 -0.783405,0.4688 -1.147653,0.7104 -0.800999,0.5938 -1.60381,1.1995 -2.28346,1.9337 0,0 -0.59995,0.2527 -0.59995,0.2527 z"
       inkscape:connector-curvature="0" />
    <path
       style="fill:none;stroke:#000000;stroke-width:0;stroke-miterlimit:4;stroke-dasharray:none"
       id="path4357"
       d="m -12.371066,1059.0921 c -0.389644,-0.3537 -0.768994,-0.7211 -1.128879,-1.1052 -0.153012,-0.1633 -0.300515,-0.3317 -0.450773,-0.4975 -0.374622,-0.4464 -0.589767,-0.6757 -0.910202,-1.1694 -0.409386,-0.6307 -0.744719,-1.334 -0.955114,-2.057 -0.06675,-0.2294 -0.105762,-0.4659 -0.158643,-0.6989 -0.01785,-0.2323 -0.0505,-0.4638 -0.05354,-0.6968 -0.0084,-0.6435 0.109192,-1.2881 0.331042,-1.8914 0.18539,-0.5042 0.27148,-0.6052 0.54022,-1.0651 0.115825,-0.1634 0.228218,-0.3293 0.347475,-0.4902 0.245221,-0.3309 0.436874,-0.5533 0.688268,-0.8758 0.267922,-0.3437 0.520711,-0.6966 0.767458,-1.0556 0.306717,-0.4427 0.500364,-0.8849 0.613057,-1.4083 0.03075,-0.1592 0.02142,-0.3407 0.142505,-0.4628 0.214369,-0.1112 0.531742,-0.4023 0.836942,-0.3742 0.249161,0.027 0.497604,0.061 0.747088,0.087 0.223681,0.01 0.384653,0.04 0.5307,0.2242 0.03607,0.046 0.06487,0.096 0.0973,0.1445 0.259402,0.4702 0.4875148,0.9568 0.7143961,1.4433 0.2746061,0.5836 0.5703983,1.1569 0.8594492,1.7335 0.1177761,0.2395 0.2450023,0.4742 0.3703995,0.7098 0,0 -0.539651,0.3076 -0.539651,0.3076 l 0,0 c -0.1161349,-0.2408 -0.2349489,-0.4802 -0.3534163,-0.7198 -0.2870811,-0.5782 -0.5878841,-1.1493 -0.8647035,-1.7325 -0.224974,-0.4827 -0.455596,-0.9645 -0.73032,-1.4214 -0.07415,-0.1002 -0.09429,-0.145 -0.190709,-0.2169 -0.1187,-0.089 -0.270363,-0.089 -0.410765,-0.1046 -0.252337,-0.028 -0.504849,-0.062 -0.758695,-0.07 -0.266537,0.024 -0.659893,0.2988 0.300288,-0.2498 -0.03717,0.018 -0.05347,0.02 -0.08084,0.054 -0.08204,0.1017 -0.0648,0.2573 -0.101711,0.375 -0.124596,0.5266 -0.323696,1.0025 -0.639747,1.4464 -0.255781,0.3636 -0.516771,0.7219 -0.792556,1.0707 -0.255041,0.3226 -0.451085,0.5464 -0.699647,0.8773 -0.11962,0.1592 -0.23221,0.3236 -0.348315,0.4854 -0.271566,0.4538 -0.36018,0.5571 -0.550198,1.0556 -0.227595,0.5971 -0.35385,1.2398 -0.352681,1.8797 4.22e-4,0.231 0.03124,0.461 0.04686,0.6915 0.05066,0.2318 0.08751,0.467 0.151989,0.6954 0.203503,0.7207 0.53359,1.4203 0.94431,2.0456 0.324828,0.4945 0.537738,0.7124 0.920499,1.1558 0.155056,0.1619 0.306177,0.3277 0.465168,0.4858 0.379733,0.3776 0.787147,0.7311 1.214937,1.053 0,0 -0.55925,0.3428 -0.55925,0.3428 z"
       inkscape:connector-curvature="0" />
    <path
       style="fill:none;fill-rule:evenodd;stroke:#000000;stroke-width:0.30000001;stroke-linecap:butt;stroke-linejoin:miter;stroke-miterlimit:4;stroke-dasharray:none;stroke-opacity:1"
       d="m 10.005204,1049.3625 c -7.0000002,0 -7.0000002,-7 -7.0000002,-7"
       id="path5074"
       inkscape:connector-curvature="0" />
    <path
       style="fill:none;fill-rule:evenodd;stroke:#000000;stroke-width:0.30000001;stroke-linecap:butt;stroke-linejoin:miter;stroke-miterlimit:4;stroke-dasharray:none;stroke-opacity:1"
       d="m 10.005204,1045.3625 c -3.0000002,0 -3.0000002,-3 -3.0000002,-3"
       id="path5076"
       inkscape:connector-curvature="0" />
    <path
       style="fill:#ff0000;stroke:#000000;stroke-width:0.00022856;stroke-miterlimit:4;stroke-dasharray:none"
       d="m 9.7535896,1049.2689 c -1.9227501,-0.073 -3.4279312,-0.6714 -4.5871295,-1.8225 -0.7103557,-0.7054 -1.203563,-1.4939 -1.5842479,-2.5327 -0.2702407,-0.7372 -0.470973,-1.6784 -0.5073376,-2.3783 l -0.014546,-0.29 1.9061263,0 1.9061262,0 0.015585,0.1649 c 0.083119,0.8803 0.4038545,1.6419 0.9138935,2.171 0.5202208,0.5396 1.1482887,0.8197 2.0036871,0.8936 0.1514844,0.013 0.2884233,0.023 0.3042153,0.023 0.02286,10e-5 0.02909,0.394 0.02909,1.8923 l 0,1.8922 -0.3845289,-0.014 z"
       id="path5082"
       inkscape:connector-curvature="0" />
  </g>
</svg>
